<?xml version="1.0" encoding="utf-8"?>
<!-- Generator: Adobe Illustrator 21.1.0, SVG Export Plug-In . SVG Version: 6.00 Build 0)  -->
<svg version="1.1" id="Layer_1" xmlns="http://www.w3.org/2000/svg" xmlns:xlink="http://www.w3.org/1999/xlink" x="0px" y="0px"
	 viewBox="0 0 269 59" style="enable-background:new 0 0 269 59;" xml:space="preserve">
<style type="text/css">
	.st0{fill:#D52638;}
</style>
<g>
	<g>
		<path d="M29.6,53.1c-3.5,0-6.7-0.6-9.7-1.9s-5.5-3-7.7-5.2s-3.8-4.8-5.1-7.7c-1.2-3-1.8-6.1-1.8-9.5v-0.1c0-3.4,0.6-6.5,1.8-9.5
			c1.2-2.9,2.9-5.5,5.1-7.8s4.7-4,7.8-5.3s6.3-1.9,10-1.9c2.2,0,4.2,0.2,6,0.5c1.8,0.4,3.5,0.9,5,1.5s2.9,1.4,4.1,2.3
			c1.3,0.9,2.4,1.9,3.5,3L42,19.1c-1.8-1.7-3.7-3-5.6-3.9s-4.1-1.4-6.4-1.4c-2,0-3.8,0.4-5.5,1.1c-1.7,0.8-3.1,1.8-4.4,3.2
			c-1.2,1.4-2.2,2.9-2.8,4.7c-0.7,1.8-1,3.7-1,5.7v0.1c0,2,0.3,3.9,1,5.7c0.7,1.8,1.6,3.4,2.8,4.7c1.2,1.4,2.6,2.4,4.3,3.2
			c1.7,0.8,3.5,1.2,5.6,1.2c2.7,0,5-0.5,6.9-1.5s3.7-2.3,5.6-4.1l6.6,6.7c-1.2,1.3-2.5,2.5-3.8,3.5s-2.7,1.9-4.3,2.7
			s-3.3,1.3-5.1,1.7C33.9,52.9,31.9,53.1,29.6,53.1z"/>
		<path d="M70.8,5h21.6c6,0,10.6,1.6,13.8,4.8c2.7,2.7,4.1,6.3,4.1,10.8v0.1c0,3.8-0.9,6.9-2.8,9.4c-1.9,2.4-4.3,4.2-7.3,5.3
			l11.5,16.9H99.5L89.4,37.2h-8.2v15.1H70.8V5z M91.7,28c2.6,0,4.5-0.6,5.9-1.8s2.1-2.8,2.1-4.8v-0.1c0-2.2-0.7-3.9-2.2-5
			c-1.4-1.1-3.4-1.7-6-1.7H81.2V28H91.7z"/>
		<path d="M133.1,5H155c5.4,0,9.5,1.4,12.3,4.2c2.2,2.2,3.2,4.8,3.2,8v0.1c0,1.4-0.2,2.5-0.5,3.6c-0.3,1-0.8,2-1.3,2.8
			c-0.6,0.8-1.2,1.6-1.9,2.2c-0.7,0.6-1.5,1.2-2.4,1.6c2.7,1,4.9,2.4,6.5,4.2c1.6,1.8,2.4,4.2,2.4,7.4v0.1c0,2.2-0.4,4.1-1.2,5.7
			c-0.8,1.6-2,3-3.6,4.1s-3.4,1.9-5.6,2.4s-4.6,0.8-7.2,0.8h-22.4V5H133.1z M160.3,19c0-1.6-0.6-2.8-1.8-3.6
			c-1.2-0.8-2.9-1.2-5.1-1.2h-10.3v10h9.6c2.3,0,4.1-0.4,5.5-1.2c1.3-0.8,2-2.1,2-3.8L160.3,19L160.3,19z M162.9,37.9
			c0-1.6-0.6-2.8-1.8-3.7c-1.2-0.9-3.2-1.4-5.9-1.4h-12v10.4h12.4c2.3,0,4.1-0.4,5.4-1.2c1.3-0.8,2-2.1,2-3.9v-0.2H162.9z"/>
		<path d="M195.3,5h9.6L227,34.1V5h10.3v47.3h-8.8l-22.9-30v30h-10.3L195.3,5L195.3,5z"/>
	</g>
	<circle class="st0" cx="257.5" cy="11.6" r="6.7"/>
</g>
</svg>
